<?xml version="1.0" encoding="UTF-8"?>
<svg id="Layer_1" data-name="Layer 1" xmlns="http://www.w3.org/2000/svg" viewBox="0 0 124.67 58.25">
  <defs>
    <style>
      .cls-1 {
        fill: #3067b1;
      }

      .cls-1, .cls-2, .cls-3, .cls-4, .cls-5, .cls-6 {
        stroke-width: 0px;
      }

      .cls-2 {
        fill: #ef4123;
      }

      .cls-3 {
        fill: #e43925;
      }

      .cls-4 {
        fill: #0ca24a;
      }

      .cls-5 {
        fill: #5fbb4c;
      }

      .cls-6 {
        fill: #e3e419;
      }
    </style>
  </defs>
  <path class="cls-1" d="M40.99,50.74c.19.14.39.26.6.37.21.11.41.24.58.39.18.15.33.33.47.53.14.2.23.46.28.76-.05.24-.14.44-.25.6-.12.16-.25.3-.41.41-.15.11-.32.21-.5.29-.18.08-.34.18-.5.28-.19-.07-.36-.05-.53.06-.17.11-.35.18-.53.22-.09.02-.17.02-.24,0-.08-.02-.16-.02-.24,0-.02,0-.05.01-.09.04-.04.03-.08.04-.11.04-.09.03-.17.05-.27.05h-.32c-.12.02-.22.04-.32.06-.09.03-.23.05-.42.06-.34.09-.74.17-1.2.25-.46.09-3.83.15-4.22.24-.09.02-.17.04-.24.06-.08.03-.16,0-.24-.09.05-.09.12-.13.2-.13s.16-.04.23-.13c.54-.17,4.11-.3,4.81-.42.69-.12,1.36-.3,1.98-.53.34-.14.68-.27,1.02-.39.34-.13.64-.26.92-.39.08-.05.18-.13.28-.23.1-.1.16-.22.18-.36.02-.12.01-.21-.01-.28-.03-.07-.06-.13-.09-.19-.03-.06-.07-.12-.1-.18-.03-.06-.04-.13-.03-.22-.05-.03-.1-.05-.14-.04-.04,0-.08,0-.11-.04-.14-.09-.26-.17-.38-.27-.12-.09-.25-.17-.38-.24-.14-.09-.27-.14-.41-.18-.14-.03-.27-.09-.41-.18-.05-.04-.09-.08-.11-.14-.03-.06-.06-.1-.09-.11-.07-.05-.2-.13-.39-.23-.19-.1-.33-.16-.42-.18-.27-.08-.53-.17-.79-.27-.25-.09-.53-.17-.84-.24-.19-.05-.38-.1-.59-.14-.2-.04-.42-.11-.64-.19-.14-.03-.26-.08-.38-.13-.12-.05-.27-.08-.46-.1-.03-.02-.06-.02-.09-.01-.03,0-.06.01-.09.01-.41-.1-.81-.21-1.21-.32-.4-.11-.78-.18-1.16-.22-.03,0-.07.02-.11.05-.04.03-.08.04-.11.03-.22-.04-.45-.09-.69-.17-.24-.08-.49-.08-.76-.01-.03,0-.06.02-.06.06,0,.04-.03.08-.06.11-.19-.09-.36-.11-.51-.06-.15.04-.31.06-.48.06-.05,0-.1-.01-.15-.04-.05-.03-.09-.04-.13-.04-.15.05-.29.15-.41.29-.12.14-.25.27-.41.37-.09.05-.17.1-.24.14-.08.04-.14.09-.19.14-.09.03-.15.08-.19.13s-.1.09-.17.13c-.12.08-.23.14-.34.18-.11.03-.19.12-.24.25-.25.12-.47.31-.66.59-.34.12-.67.3-.98.55-.31.25-.64.45-.98.6-.14.07-.26.13-.38.19-.12.06-.22.15-.31.27-.2.05-.37.14-.5.26-.13.12-.28.19-.47.23-.05.14-.14.22-.25.27-.12.04-.25.09-.38.14-.14.09-.28.18-.42.28-.14.1-.31.19-.5.28-.03.02-.08.03-.15.03s-.14.02-.2.05c-.27.17-.56.33-.88.5-.31.16-.61.32-.9.47-.19.1-.35.17-.48.22-.14.04-.25.13-.36.27-.37.09-.73.2-1.07.36-.34.15-.69.3-1.07.43-.19.09-.36.15-.52.2-.16.05-.33.12-.5.2-.05.02-.09.05-.13.09-.03.04-.07.07-.1.09-.03,0-.08,0-.13-.01-.05,0-.1,0-.15.01-.17.02-.37.06-.6.13-.23.07-.43.12-.6.15-.1.05-.21.08-.32.08s-.21.02-.29.05c-.03.03-.05.07-.05.11s-.03.09-.08.14c-.05.03-.14.05-.27.06-.13,0-.23.04-.32.09-.03-.05-.03-.11.01-.16.04-.06.04-.11-.01-.17-.08.12-.19.18-.33.19-.14,0-.27.07-.41.19-.19-.03-.38-.02-.58.04-.2.06-.42.09-.64.09-.05,0-.1-.02-.15-.05-.05-.03-.11-.06-.18-.08-.14-.02-.27,0-.41.04-.14.04-.28.08-.43.13-.15.04-.31.08-.47.13-.16.04-.32.06-.47.04-.12-.03-.25-.05-.39-.04-.14,0-.28,0-.42-.04-.14-.03-.32-.06-.56-.09-.24-.03-.42.03-.56.16-.15-.03-.33-.07-.53-.11-.2-.04-.38-.06-.53-.06h-.46c-.12,0-.28,0-.48-.03-.07,0-.14-.02-.23-.05-.08-.03-.17-.06-.25-.08-.36-.08-.68-.17-.98-.25-.3-.09-.59-.21-.88-.38-.14-.09-.25-.17-.36-.24-.1-.08-.18-.16-.23-.24-.08-.07-.14-.13-.17-.19-.03-.06-.07-.11-.14-.17-.03-.09-.08-.14-.14-.16-.06-.03-.11-.06-.17-.11-.07-.08-.11-.17-.14-.25-.03-.09-.08-.15-.17-.2.03-.12.02-.21-.04-.27-.06-.06-.11-.13-.14-.22-.15,0-.26-.06-.33-.18.02-.05.05-.09.09-.1.04-.02.06-.07.06-.15.05-.07.09-.06.11.01.03.08.06.09.11.04.05-.12.05-.21-.01-.28-.06-.07-.07-.14-.04-.23.02-.1.07-.2.15-.28.09-.08.12-.2.1-.33.12-.08.23-.18.33-.28.1-.1.19-.19.28-.28.14-.02.25-.08.33-.18.09-.1.2-.2.33-.28.19-.15.39-.28.62-.39.23-.11.46-.23.7-.37.24-.15.47-.28.7-.38.23-.1.45-.22.67-.36.2-.05.4-.13.6-.24.19-.11.4-.2.62-.27.07-.03.14-.05.2-.05s.14,0,.2-.03c.3-.14.62-.27.94-.39.32-.13.65-.23.99-.32.36-.09.72-.18,1.09-.29.37-.11.75-.2,1.14-.27.59-.14,1.2-.27,1.81-.41.61-.14,1.25-.25,1.93-.33.41-.07.84-.14,1.3-.22.46-.08.93-.14,1.42-.19.19-.02.37-.03.56-.04.19,0,.37-.03.56-.06.08.03.16.05.23.05s.15-.02.25-.05c.05-.03.08-.07.08-.11s.04-.06.13-.04c.07-.05.1-.04.09.03,0,.07,0,.11.04.13.14-.03.27-.04.39-.03.13.02.24.03.34.03-.02-.07-.08-.09-.18-.05-.1.03-.15,0-.15-.1.1-.09.21-.11.33-.09.12.03.25.02.38-.01.34,0,.7-.03,1.08-.09.38-.06.74-.05,1.08.04.54-.14,1.06-.18,1.54-.14.48.04,1.01.07,1.59.09.29,0,.57,0,.85.03.28.02.56.03.85.03.15,0,.34.03.57.08.23.05.39.04.5-.03.15-.07.31-.19.46-.36.2-.15.46-.36.76-.62.31-.26.62-.54.95-.84.33-.3.64-.59.94-.88s.53-.53.7-.71c.08-.1.2-.23.36-.38.15-.15.31-.32.48-.5.17-.18.33-.36.48-.53.15-.18.28-.33.38-.47-.1.05-.26.12-.48.22-.22.09-.44.19-.67.29-.23.1-.45.2-.66.29-.21.09-.37.16-.47.22l-.18.15-.18.08c-.05.05-.09.08-.13.08-.14.09-.28.15-.43.19-.15.04-.3.11-.43.22-.39.2-.82.4-1.3.59-.48.19-.91.4-1.3.64-.03,0-.08,0-.13.01-.05,0-.09.01-.13.01l.25-.03-.25.03-.15.03c-.25.05-.51.12-.78.22-.26.09-.51.16-.75.19-.12,0-.21,0-.28.03h.05c-.1.03-.19.03-.28,0-.05,0-.08,0-.1-.03h.08c-.27-.03-.44-.09-.51-.17-.07-.08-.18-.22-.33-.42.03-.1.02-.18-.05-.23-.07-.05-.08-.12-.05-.2,0-.09.05-.19.15-.31.1-.12.22-.23.34-.34.13-.11.25-.21.38-.29.13-.09.22-.15.29-.2.14-.09.27-.18.41-.28.14-.1.26-.19.38-.28.25-.2.58-.46.98-.76.4-.31.76-.54,1.08-.71.39-.29.79-.56,1.21-.83.42-.26.86-.54,1.34-.83.03-.03.06-.06.09-.09.03-.03.05-.06.09-.09.03-.02.06-.03.08-.05l.51-.28c.1-.07.28-.17.52-.31.25-.14.51-.28.79-.43.28-.15.55-.3.8-.43.25-.14.45-.23.58-.28.27-.13.52-.23.75-.28.23-.05.48-.09.75-.13.17,0,.31.03.41.09.1.06.22.11.36.14.03.09.07.14.11.16.04.03.09.08.14.17.05.05.11.13.18.23l.05.2v.18l.03.15c0,.05-.02.09-.05.11-.03.03,0,.06.08.11l.43-.18.2-.05.1-.1s.05-.04.09-.06c.04-.03.1-.06.17-.09l.15-.08c.14-.07.22-.1.25-.1.03-.03.08-.07.15-.1l.1-.05c.05,0,.1.03.15.1.05.07.08.18.1.33.03.02.05.04.04.06,0,.03,0,.06.04.09.02.25.04.49.08.71v.13s0,.06.01.06c0,0,.01.03.01.06.02.03.03.07.03.1s0,.07.03.1c-.02.09-.08.18-.19.29-.11.11-.23.22-.37.32-.14.1-.27.2-.39.31-.13.1-.22.18-.27.23-.02.03-.03.07-.03.1l-.08.18-.08.13s-.05.06-.09.09-.07.06-.09.09c-.03.05-.06.1-.08.14-.02.04-.04.08-.08.11-.02.02-.03.03-.05.04-.02,0-.03.02-.05.04l-.71.71c-.25.27-.51.53-.76.79-.25.25-.52.52-.79.81-.19.2-.45.45-.79.74-.34.29-.69.59-1.04.9-.36.31-.7.62-1.04.93-.34.31-.6.56-.79.76.24.14.49.2.75.2s.53.03.8.08c.19.08.4.16.64.24.24.08.47.14.69.19.19.03.37.05.56.04.19,0,.36.02.53.09.12.03.24.08.37.13.13.05.26.09.39.13.08.03.19.07.32.11.13.04.26.08.39.11.07.02.13.02.18.01.05,0,.1,0,.15.01.05.03.1.07.15.1.05.03.1.06.15.08.1.03.21.05.32.04.11,0,.22,0,.34.04.08.03.17.08.24.14.08.06.17.11.27.14.03.02.06.01.09-.01.03-.03.06-.02.09.01.14.03.27.09.39.18.13.08.26.14.39.18.07.02.14.02.2,0,.07-.02.14,0,.23.03.07.03.13.09.19.15.06.07.13.12.22.15.1.05.2.09.3.11.1.03.19.06.28.09.03.03.08.08.13.13.05.05.13.07.23.05M.48,54.88c.03-.1,0-.15-.1-.15,0,.1.03.15.1.15M25.84,49.49c.31-.24.6-.46.88-.66.28-.2.51-.46.7-.76-.09,0-.15-.02-.19-.06-.04-.04-.1-.06-.17-.06-.12-.02-.24.01-.36.09-.12.08-.22.05-.31-.09-.05.13-.13.18-.24.13-.11-.05-.2-.09-.27-.13-.09.03-.22.07-.39.11-.18.04-.31.01-.39-.09.02-.03.05-.04.1-.03.05.02.08,0,.08-.05-.07-.05-.11-.06-.14-.04-.03.03-.06.06-.09.09-.14.05-.28.08-.43.09-.15,0-.3.01-.43.01.14.07.29.09.46.08.17-.02.28.04.33.18-.07.02-.11,0-.11-.04,0-.04-.03-.06-.06-.04-.37.03-.77.05-1.2.04-.42,0-.86,0-1.3.04-.07.02-.1,0-.09-.04,0-.04-.02-.06-.09-.04-.12.05-.24.06-.37.04-.13-.03-.24-.04-.34-.04-.07,0-.13,0-.19.03-.06.02-.11.03-.17.05-.64.05-1.29.08-1.93.1-.64.02-1.26.08-1.86.18.15.03.31.03.46,0,.15-.03.29-.02.41.05-.83.14-1.63.25-2.4.36-.77.1-1.55.24-2.33.41-.02.17-.11.24-.29.22-.18-.03-.33-.04-.44-.04-.17.19-.39.29-.65.31-.26.02-.52.07-.78.15-.24.07-.48.14-.74.22-.25.08-.47.15-.66.22-.12.03-.23.06-.33.06-.1,0-.21.03-.33.06-.29.08-.57.18-.84.28-.27.1-.54.19-.81.25-.22.19-.46.32-.72.41-.26.09-.53.18-.8.28-.12.05-.22.11-.32.19-.09.08-.21.16-.34.24-.07.03-.14.06-.2.09-.07.03-.14.06-.23.11-.14.08-.25.2-.36.34-.1.14-.21.26-.33.34-.08.03-.17.07-.27.11-.09.04-.18.09-.27.14-.15.09-.29.19-.42.32-.13.13-.28.23-.45.32-.02.09,0,.12.03.11.03,0,.03.03,0,.11-.1.17-.23.31-.38.43-.15.12-.27.3-.36.53.07.02.13.05.19.1.06.05.14.08.24.08.1.2.26.34.47.41.21.07.41.16.6.28.03,0,.06-.01.08-.04.02-.03.04-.05.08-.06.03.09.08.13.13.13.56.15,1.13.29,1.7.41.58.12,1.15.18,1.73.18.71-.03,1.44-.06,2.19-.09.75-.03,1.47-.1,2.19-.22.17-.03.34-.06.51-.09.17-.03.32-.06.46-.11l.23-.1c.27-.12.55-.21.84-.27.29-.06.57-.13.84-.22.29-.08.57-.17.85-.24.28-.08.54-.18.78-.32.05-.02.09-.05.13-.1.03-.05.08-.09.13-.13.24-.09.48-.17.74-.27.25-.09.5-.21.74-.34.25-.1.49-.21.71-.33.22-.12.44-.24.66-.36,1.15-.58,2.28-1.2,3.39-1.87,1.11-.67,2.16-1.39,3.14-2.15M9.36,49.57c-.03.05-.09.08-.17.08s-.13.03-.17.08c.07.02.15.01.25-.01.1-.03.13-.07.08-.14M13.4,48.73c-.12.03-.22.05-.32.04-.09,0-.17.03-.22.11.2.03.38-.02.53-.15M13.5,49.03c-.05,0-.08.03-.1.08.07,0,.1-.03.1-.08M14.24,48.9h-.2c-.07,0-.1.03-.1.1.05.02.11.02.18.01.07,0,.11-.05.13-.11M14.98,48.8c-.1.02-.21.02-.33.02s-.2.02-.25.05c.09.03.19.04.31.03.12-.02.21-.05.28-.1M15.56,48.73c-.07-.02-.16-.03-.27-.03s-.18.04-.22.13c.05.07.13.08.24.04.11-.04.19-.09.24-.14M16.91,48.57c-.08-.03-.19-.03-.33,0-.14.03-.23.07-.28.1.22.07.42.03.61-.1M16.4,48.29c0,.05.03.07.1.06.07,0,.09-.03.08-.06-.03-.03-.09-.03-.18,0M19.56,48.5s.09-.08.18-.09c.09,0,.14,0,.18.04-.02.07-.07.1-.15.1s-.15-.02-.2-.05M21.13,47.81h-.22c-.06,0-.11.03-.17.08.03-.02.1-.02.19-.01.09,0,.16-.01.19-.06M21.31,48.02s-.08,0-.13.01c-.05,0-.09.01-.13.01h-.15c.09,0,.17.01.24.04.08.02.13,0,.17-.06M21.72,47.94c-.02.05-.06.07-.14.06-.08,0-.11,0-.11.04.05,0,.13,0,.24.01.11,0,.18,0,.22-.04-.05,0-.08-.03-.08-.08,0-.03.01-.06.04-.06.03,0,.04-.03.04-.06-.02-.02-.06-.02-.13-.01-.07,0-.13.01-.18.01.07.05.1.09.1.13M22.58,47.81c-.08-.07-.19-.09-.31-.08-.12.02-.22.04-.31.08.09.03.18.05.29.05s.22-.02.32-.05M23.34,47.99c-.08,0-.19-.01-.32-.04-.13-.03-.22,0-.27.09.07.02.17.03.3.05.14.02.23-.02.28-.1M24.01,48.02c-.05.02-.11.02-.19,0-.08-.02-.13,0-.17.03.05,0,.12.01.2.04.09.02.14,0,.15-.06M31.02,41.33c.24-.1.53-.23.88-.38.35-.15.7-.31,1.07-.46.36-.15.72-.3,1.06-.45.34-.14.63-.27.86-.37.07-.03.15-.08.24-.13.09-.05.17-.12.24-.2-.24-.02-.47,0-.7.08-.23.07-.45.14-.67.23-.17.05-.39.13-.67.24-.28.11-.57.23-.88.37-.31.14-.59.27-.86.41-.27.14-.48.25-.64.36l-.18.13-.33.18c-.14.09-.28.18-.42.28-.14.1-.26.2-.34.28.25-.1.45-.18.59-.24.14-.06.25-.11.33-.14.08-.03.15-.06.2-.09.05-.03.13-.06.23-.09"/>
  <path class="cls-1" d="M45.12,43.98c-.05.06-.05.12,0,.17v.08l-.04.04s-.04,0-.06.03c-.01.02-.03.03-.06.03l-.02.06c-.09.06-.17.12-.26.17-.09.05-.17.1-.24.15-.1.05-.2.1-.29.15-.09.05-.18.09-.27.13,0,.01,0,.02-.02.02s-.03.01-.04.04c-.09.02-.16.07-.22.13-.06.06-.13.1-.21.11,0-.01.02-.03.06-.04.04-.01.05-.03.04-.04-.04.01-.08.02-.12.03-.04,0-.08.02-.1.05v-.02l-.07.08s-.02.01-.06,0c-.03.07-.08.11-.17.11.05.04.07.04.07,0,0,.02-.05.06-.15.09-.01,0-.03.01-.06.04-.06.07-.15.12-.26.15.04-.02.08-.05.13-.07.05-.02.09-.05.11-.07-.09.04-.17.07-.23.11-.07.04-.13.09-.2.15-.04.02-.06.05-.07.06,0,.02-.02.04-.03.05-.05,0-.09,0-.11,0-.03,0-.06.03-.09.08l-.11.13c-.1,0-.16,0-.19.02l-.15.06v-.04c-.1.02-.18.07-.23.13-.06.06-.14.13-.25.21l-.19.06c-.06.01-.11.03-.14.06-.03.02-.06.05-.08.07-.02.03-.06.05-.09.07-.04.02-.07.05-.11.07-.02-.01-.05,0-.08.03-.03.03-.05.04-.05.03-.01.01-.02.03-.04.05-.01.02-.03.04-.06.05-.1.03-.16.06-.19.1-.03.04-.06.1-.11.16-.05.02-.1.05-.15.07-.05.02-.09.04-.11.07-.1.07-.18.16-.23.25-.06.09-.13.17-.23.23-.03-.03-.03-.04,0-.06.02-.01.04-.03.04-.06.15-.2.31-.39.49-.56.18-.17.35-.35.51-.54.01-.01.03-.02.06-.02,0-.02,0-.04,0-.05,0,0,0-.02,0-.03.06-.02.1-.04.11-.06.01-.01.02-.03.04-.06l-.02.02c0-.07.03-.11.09-.11.02,0,.03,0,.02,0-.01,0-.02-.02-.02-.05h.02l.04.04c.12-.1.25-.21.37-.34.12-.12.25-.23.37-.32h-.04s.05-.03.08-.05c.03-.02.06-.04.08-.06.02-.03.04-.04.06-.04s.02-.01.02-.04c.09-.06.17-.13.26-.2.09-.08.17-.15.24-.22.09-.07.18-.15.27-.21.09-.07.18-.13.27-.2-.52.21-1.01.43-1.46.66-.45.23-.9.48-1.33.74-.06.04-.13.07-.2.09-.07.03-.13.07-.18.13h-.02c-.1.06-.2.12-.29.17-.09.05-.19.1-.29.15-.07.06-.14.11-.21.16-.06.04-.13.1-.21.16-.03.03-.06.06-.11.09-.05.04-.09.07-.11.09,0,.03-.05.04-.15.04.01.01,0,.02,0,.02s-.03.01-.05.04c-.67.47-1.33,1-1.98,1.59-.65.58-1.19,1.21-1.62,1.88-.05,0-.09.01-.13.04,0-.02-.02-.03-.06-.03-.04,0-.07,0-.09-.03v-.02s-.06-.04-.09-.04-.07-.01-.09-.04c-.05-.02-.09-.04-.13-.06-.04-.01-.06-.03-.06-.06-.04.02-.07.02-.09,0-.02-.03-.05-.04-.07-.06v-.09s-.07-.03-.07-.08c0-.06.03-.1.07-.14-.01-.01-.03-.02-.05,0s-.03,0-.03,0c-.02-.05-.02-.09.02-.13.04-.04.07-.07.09-.09.06-.14.14-.25.22-.34.09-.09.17-.19.24-.32.06-.06.12-.12.16-.17.04-.05.08-.11.12-.17.05-.06.09-.11.13-.16.04-.04.07-.1.09-.16.02-.01.05-.04.08-.09.03-.05.07-.09.1-.13l1.42-1.92s.05-.06.08-.1c.03-.04.08-.08.14-.1.09-.17.21-.34.37-.5.07-.06.14-.14.2-.22.06-.09.13-.18.21-.28.07-.06.14-.14.21-.22.06-.09.14-.16.22-.22.16-.14.29-.29.39-.47.02-.01.05-.04.07-.07.02-.04.05-.07.07-.09.02-.01.04-.03.05-.04,0-.01.02-.03.05-.06.02-.01.05-.02.08-.04.03-.01.06-.02.08-.02.05.04.11.09.18.15.07.06.14.13.21.2.07.07.13.15.2.22.06.07.12.12.17.16l.3.47h.04s.03.01.06.04c0,.02,0,.04.02.04,0,.01,0,.02.02.02.15-.06.29-.12.41-.19.12-.06.27-.13.45-.19.4-.17.78-.35,1.15-.53.37-.18.77-.34,1.2-.48.11-.02.22-.06.33-.1.11-.04.21-.08.31-.1.14-.03.26-.05.38-.07.12-.02.24-.02.36,0,0,.01,0,.02.02.02l.02-.02s.02.03.02.02,0-.02.02-.02c.05,0,.07.02.07.06l-.06.06c.09,0,.13,0,.13-.02.07,0,.12.03.13.09.05-.04.1-.03.14,0,.04.04.08.07.1.07.07-.02.1-.06.07-.1-.03-.04-.03-.03,0,.03h-.04s0,.05,0,.04c0-.01,0,0,0,.04v.02s-.03,0-.05.02c-.02.01-.04.02-.07.02.05.03.09.03.12,0,.03-.02.06-.02.08,0,0-.02.01-.04.04-.06-.02.04-.02.06,0,.07.03,0,.03.02,0,.05h.04ZM40.47,45.6c.1-.05.16-.11.19-.17-.11.11-.22.17-.32.17l.02.02c-.1.04-.17.08-.22.13-.05.05-.12.09-.22.11,0,.02-.03.05-.07.06-.05.02-.07.05-.07.08.14-.06.25-.13.35-.21.09-.07.2-.14.31-.19,0-.01.02-.02.06-.02M40.42,46.59v-.04l.02-.02s0,.03-.02.06M40.55,46.87l-.02.04h-.02l.04-.04ZM42.56,45.73l-.04.02-.02.02.02-.02s.02-.02.04-.02M42.58,45.71s0,.02-.02.02l.02-.02ZM43.91,43.72c.06-.02.12-.03.18,0,.06.02.11.02.18,0-.2-.06-.44-.05-.73.04h-.02c.07-.01.14-.02.21-.03.06,0,.12,0,.19,0-.06.01-.11.02-.14.02h-.08s.07,0,.15.02c.07.01.14,0,.21-.02,0-.04-.02-.05-.06-.03-.04.02-.06.02-.07,0M45.12,44.15v-.04.06-.02Z"/>
  <path class="cls-1" d="M49.71,44.24s.02.12,0,.22c.02.06.08.12.17.17.09.05.14.11.17.17-.01.01-.02.03-.02.04-.01.01-.02.04-.02.07-.01.06-.01.13,0,.21.01.08.03.15.06.21-.04.04-.04.09,0,.17.01.05.02.1.04.15.01.05.01.11,0,.17.01.01.03.02.06.02s.04.01.06.04c-.03.01-.05,0-.07,0-.03-.02-.05-.02-.07,0-.03.07-.06.11-.11.11-.07.05-.14.07-.19.06-.05-.01-.11-.03-.17-.04-.04-.01-.11,0-.22.02l-.22.06c-.21.04-.42.08-.63.14-.21.06-.41.1-.63.14-.03.02-.05.04-.08.05-.03,0-.07.02-.1.05-.17.06-.35.12-.51.17-.17.05-.35.11-.53.17-.03,0-.05,0-.08.02-.03.01-.07.02-.1.04-.02.01-.06.02-.09.03-.04,0-.07.02-.09.05-.04.01-.07.02-.09.03-.03,0-.06.02-.09.03-.16.06-.31.12-.46.19-.14.06-.3.12-.46.19-.05.02-.1.05-.15.07-.05.02-.1.04-.15.06-.36.17-.71.35-1.04.53-.34.18-.68.36-1.03.55-.05.03-.1.05-.15.08-.05.03-.11.06-.17.08-.05.05-.11.08-.18.1-.07.02-.13.06-.18.12.05.04.1.06.15.07.05,0,.09,0,.13,0,.09,0,.16,0,.21-.02.05-.01.09-.02.13-.02s.07-.01.11-.04c.46-.04.91-.11,1.35-.23.44-.12.89-.23,1.33-.33.06-.02.11-.04.16-.05.04,0,.1-.02.16-.05.1-.02.19-.05.28-.08.09-.03.19-.06.3-.08.05,0,.12-.01.22-.04.21-.06.42-.13.62-.2.2-.07.4-.13.62-.2.05-.01.1-.03.14-.05.04-.02.1-.03.16-.05.2-.07.4-.16.6-.25.2-.09.42-.16.65-.21-.21.1-.43.19-.65.26-.22.08-.45.18-.67.32-.04.03-.08.05-.12.06-.04.02-.1.04-.16.07-.2.09-.39.17-.59.25-.19.08-.4.17-.61.27-.1.05-.18.08-.24.09-.1.04-.2.08-.29.12-.09.04-.18.08-.27.1-.06.02-.12.05-.17.07-.05.02-.09.03-.13.05-.11.07-.24.14-.37.19-.14.05-.27.09-.41.13-.14.04-.27.08-.4.12-.13.04-.24.11-.33.2-.07.07-.16.12-.24.14-.09.02-.17.03-.25.04-.08,0-.17.02-.25.03-.09.01-.17.06-.24.13-.06,0-.12,0-.18.02-.06.01-.11.04-.16.07-.05,0-.1,0-.15.02-.05.01-.11.03-.17.06-.12.03-.25.04-.38.06-.13.01-.27.02-.42.04-.12-.01-.24-.05-.35-.1-.11-.06-.19-.12-.24-.2.01.1,0,.13-.04.09-.04-.04-.06-.13-.06-.29s.04-.37.11-.63c.07-.27.24-.58.49-.94.17-.21.36-.43.57-.65.21-.22.41-.42.63-.6.1.01.17-.02.21-.1.04-.08.11-.11.2-.08-.01-.02-.02-.04,0-.05,0,0,0-.02,0-.05v.09s.09-.02.11-.06c.02-.04.04-.05.06-.04-.01.07-.03.11-.06.11s-.05.01-.07.04c-.04,0-.06,0-.07.03,0,.02-.02.04-.03.07-.04.03-.07.04-.11.05-.04,0-.06.02-.06.05.02.04.04.05.06.05.01,0,.02-.02.02-.05,0,.07-.04.14-.13.21-.1.06-.2.14-.3.22-.1.09-.18.17-.24.26.07-.02.14-.07.19-.14.05-.07.12-.11.22-.14.29-.24.57-.48.85-.73.28-.25.58-.47.9-.67-.01-.04,0-.06.05-.07.04-.01.07-.03.08-.06-.06,0-.11.01-.13.04-.03.02-.06.05-.11.07-.04.02-.08.04-.13.06-.05.01-.1.04-.15.07-.06.05-.13.1-.21.15-.07.05-.16.09-.24.11.02-.04.05-.06.08-.06.03,0,.06-.03.08-.07.06-.06.09-.1.09-.11l.22-.17s.02-.03,0-.05c-.03-.02-.03-.04,0-.07.06-.04.12-.07.19-.09.06-.02.11-.07.13-.15.17-.14.36-.27.56-.39.2-.12.4-.24.62-.34.42-.24.86-.44,1.33-.6.22-.06.45-.11.67-.16.22-.04.46-.07.71-.07h.33c.09,0,.19.02.29.06.1,0,.16.02.19.07.02.01.06.03.09.06.04.03.08.05.13.07.05.02.11.05.17.07.06.02.13.05.21.08M41.87,47.69s.07,0,.09-.02c.01-.01.02-.02.04-.02-.03,0-.05,0-.07,0-.02,0-.04.02-.07.03M42.6,47.06l.04-.04.04-.04-.07.04s-.01.02,0,.04M44.06,47.09h.04s.03-.01.06-.04c0-.01-.03,0-.09.04M46.93,45.45c-.26.07-.52.17-.77.28-.26.11-.49.24-.7.37.36-.1.71-.22,1.04-.35.34-.13.68-.23,1.03-.31.11-.05.23-.08.35-.1.12-.02.23-.05.35-.1-.06-.04-.13-.05-.21-.05-.08,0-.16,0-.23,0l-.84.24Z"/>
  <path class="cls-1" d="M61.06,52.86c.14.1.28.19.44.27.16.08.3.18.43.29.13.11.25.24.35.39.1.15.17.34.21.56-.04.17-.1.32-.19.44-.09.12-.19.22-.3.3-.11.08-.23.15-.36.21-.13.06-.25.13-.36.21-.14-.05-.27-.03-.39.05-.12.08-.26.13-.39.16-.06.01-.12.01-.18,0-.06-.01-.12-.01-.18,0-.01,0-.03,0-.07.03-.03.02-.06.03-.08.03-.06.03-.13.04-.2.04h-.23c-.09.01-.17.03-.23.05-.07.02-.17.03-.31.05-.25.06-.54.12-.88.19-.34.06-.65.12-.93.19-.06.01-.12.03-.18.05-.06.02-.12,0-.18-.06.04-.06.09-.09.15-.09s.12-.03.17-.09c.4-.12.85-.23,1.36-.32.51-.09,1-.22,1.46-.39.25-.1.5-.2.75-.29.25-.09.47-.19.67-.29.06-.04.13-.09.21-.17.07-.07.12-.16.13-.26.01-.09,0-.16,0-.21-.02-.05-.04-.1-.07-.14-.03-.04-.05-.09-.07-.13-.03-.04-.03-.1-.02-.16-.04-.02-.07-.03-.1-.03-.03,0-.06,0-.08-.03-.1-.06-.19-.13-.28-.2-.09-.07-.18-.13-.28-.18-.1-.06-.2-.11-.3-.13-.1-.02-.2-.07-.3-.13-.04-.03-.07-.06-.08-.1-.02-.04-.04-.07-.07-.08-.05-.04-.15-.09-.29-.17-.14-.08-.25-.12-.31-.13-.2-.06-.39-.13-.58-.2-.19-.07-.39-.13-.62-.18-.14-.04-.28-.07-.43-.1-.15-.03-.3-.08-.47-.14-.1-.02-.19-.06-.28-.09-.09-.04-.2-.06-.34-.08-.03-.01-.05-.02-.07,0-.02,0-.04,0-.07,0-.3-.07-.59-.15-.89-.23-.29-.08-.58-.13-.85-.16-.03,0-.05.01-.08.04-.03.02-.06.03-.08.02-.16-.03-.33-.07-.5-.12-.17-.06-.36-.06-.56,0-.02,0-.04.02-.05.05,0,.03-.02.06-.05.08-.14-.06-.26-.08-.37-.05-.11.03-.23.05-.35.05-.04,0-.07,0-.11-.03-.04-.02-.07-.03-.09-.03-.11.04-.21.11-.3.21-.09.11-.19.2-.3.27-.06.04-.12.07-.18.1-.06.03-.1.06-.14.1-.06.02-.11.06-.14.09-.03.04-.07.07-.12.09-.09.06-.17.11-.25.13-.08.02-.14.09-.18.19-.19.09-.35.23-.49.43-.25.09-.49.22-.72.4-.23.18-.47.33-.72.44-.1.05-.19.1-.28.14-.09.04-.16.11-.22.2-.15.04-.27.1-.36.19-.09.09-.21.14-.35.17-.04.1-.1.16-.19.2-.09.03-.18.07-.28.1-.1.06-.2.13-.31.2-.11.08-.23.14-.36.21-.02.01-.06.02-.11.02s-.1.01-.15.04c-.2.12-.41.25-.64.36-.23.12-.45.23-.66.35-.14.07-.25.13-.35.16-.1.03-.19.1-.26.2-.27.06-.53.15-.78.26-.25.11-.51.22-.78.32-.14.06-.26.11-.38.15-.12.04-.24.09-.36.15-.04.01-.07.03-.09.07-.02.03-.05.05-.07.06-.03,0-.06,0-.09,0-.04,0-.07,0-.11,0-.12.01-.27.04-.44.09-.17.05-.31.09-.44.11-.07.04-.15.06-.23.06s-.15.01-.21.04c-.02.02-.04.05-.04.08s-.02.07-.06.1c-.04.02-.1.04-.2.05-.09,0-.17.03-.23.06-.02-.04-.02-.08,0-.12.03-.04.03-.08,0-.12-.06.09-.14.13-.24.14-.1,0-.2.05-.3.14-.14-.02-.28-.02-.43.03-.15.04-.3.07-.47.07-.04,0-.07-.01-.11-.04-.04-.02-.08-.04-.13-.06-.1-.01-.2,0-.3.03-.1.03-.21.06-.32.09-.11.03-.23.06-.35.09-.12.03-.23.04-.35.03-.09-.03-.18-.03-.29-.03-.11,0-.21,0-.31-.03-.1-.02-.24-.05-.41-.06-.17-.02-.31.02-.41.12-.11-.03-.24-.05-.39-.08-.15-.03-.28-.05-.39-.05h-.34c-.09,0-.21,0-.35-.02-.05,0-.11-.01-.17-.04-.06-.02-.12-.04-.19-.06-.26-.06-.5-.12-.72-.19-.22-.06-.43-.16-.64-.28-.1-.06-.19-.12-.26-.18-.07-.06-.13-.12-.17-.18-.06-.05-.1-.1-.12-.14-.02-.04-.05-.08-.1-.12-.02-.06-.06-.1-.1-.12-.04-.02-.08-.05-.12-.08-.05-.06-.08-.12-.1-.19-.02-.06-.06-.11-.12-.15.02-.09.02-.15-.03-.2-.04-.04-.08-.1-.1-.16-.11,0-.19-.04-.24-.13.01-.04.03-.06.07-.07.03-.01.05-.05.05-.11.04-.05.07-.05.08,0,.02.06.05.06.08.03.04-.09.03-.16,0-.21-.04-.05-.05-.11-.03-.17.01-.07.05-.14.11-.21.06-.06.09-.14.07-.24.09-.06.17-.13.24-.21.07-.07.14-.14.21-.21.1-.01.18-.06.24-.13.06-.07.14-.14.24-.21.14-.11.29-.21.46-.29.17-.08.34-.17.51-.27.17-.11.35-.21.51-.28.17-.07.33-.16.49-.26.15-.04.3-.1.44-.18.14-.08.3-.15.46-.2.05-.02.1-.04.15-.04s.1,0,.15-.02c.22-.1.45-.2.69-.29.24-.09.48-.17.73-.23.26-.06.53-.13.8-.21.27-.08.55-.15.84-.2.44-.1.88-.2,1.32-.3.45-.1.92-.18,1.42-.24.3-.05.62-.1.95-.16.34-.06.68-.1,1.05-.14.14-.01.27-.02.41-.03.14,0,.27-.02.41-.05.06.02.12.04.17.04s.11-.01.19-.04c.04-.02.06-.05.06-.08s.03-.04.09-.03c.05-.04.07-.03.07.02,0,.05,0,.08.03.09.1-.02.2-.03.29-.02.09.01.18.02.25.02-.01-.05-.06-.06-.13-.04-.07.02-.11,0-.11-.07.07-.06.16-.08.24-.06.09.02.18.01.28,0,.25,0,.51-.02.79-.07.28-.04.54-.03.79.03.4-.1.77-.13,1.13-.1.35.03.74.05,1.17.07.21,0,.42,0,.63.02.21.01.41.02.63.02.11,0,.25.02.42.06.17.04.29.03.36-.02.11-.05.22-.14.34-.26.15-.11.34-.27.56-.46.22-.19.46-.4.7-.62.24-.22.47-.43.69-.64.22-.21.39-.39.51-.52.06-.07.15-.17.26-.28.11-.11.23-.23.35-.36.12-.13.24-.26.35-.39.11-.13.21-.25.28-.35-.07.04-.19.09-.35.16-.16.07-.33.14-.49.22-.17.07-.33.15-.49.21-.16.07-.27.12-.35.16l-.13.11-.13.06s-.07.06-.09.06c-.1.06-.21.11-.32.14-.11.03-.22.08-.32.16-.29.15-.6.29-.95.43-.35.14-.67.29-.95.47-.03,0-.06,0-.09,0-.04,0-.07,0-.09,0l.19-.02-.19.02-.11.02c-.19.04-.38.09-.57.16-.19.07-.38.12-.55.14-.09,0-.16,0-.21.02h.04c-.07.02-.14.02-.21,0-.04,0-.06,0-.07-.02h.06c-.2-.02-.32-.07-.37-.12-.05-.06-.13-.16-.24-.31.03-.07.01-.13-.04-.17-.05-.04-.06-.09-.04-.15,0-.06.04-.14.11-.22.07-.09.16-.17.25-.25.09-.08.19-.15.28-.21.09-.06.16-.11.21-.15.1-.06.2-.13.3-.21.1-.07.19-.14.28-.21.19-.15.43-.34.72-.56.29-.22.56-.4.79-.52.29-.21.58-.41.89-.61.3-.19.63-.39.98-.61.02-.02.05-.05.07-.07.02-.02.04-.04.07-.07.02-.01.04-.02.06-.04l.37-.21c.07-.05.2-.12.38-.22.18-.1.37-.21.58-.32.21-.11.4-.22.59-.32.19-.1.33-.17.43-.21.2-.1.38-.17.55-.21.17-.04.35-.07.55-.09.12,0,.22.02.3.07.07.04.16.08.26.1.02.06.05.1.08.12.03.02.07.06.1.12.04.04.08.09.13.17l.04.15v.13l.02.11s-.01.06-.04.08c-.03.02,0,.05.06.08l.32-.13.15-.04.07-.07s.03-.03.07-.05c.03-.02.07-.04.12-.07l.11-.06c.1-.05.16-.07.19-.07.02-.02.06-.05.11-.07l.07-.04s.07.02.11.07c.04.05.06.13.07.24.02.01.03.03.03.05,0,.02,0,.04.03.07.01.19.03.36.06.52v.09s0,.04,0,.05c0,0,0,.02,0,.05.01.02.02.05.02.07s0,.05.02.07c-.01.06-.06.13-.14.22-.08.08-.17.16-.27.23-.1.07-.2.15-.29.22-.09.07-.16.13-.2.17-.01.03-.02.05-.02.08l-.06.13-.06.09s-.03.05-.07.07c-.03.02-.05.04-.07.07-.03.04-.04.07-.06.1-.01.03-.03.06-.06.08-.01.01-.03.02-.04.03-.01,0-.02.02-.04.03l-.52.52c-.19.2-.37.39-.56.58-.19.19-.38.39-.58.6-.14.15-.33.33-.58.54-.25.21-.5.43-.76.66-.26.23-.52.46-.77.68-.25.22-.44.41-.58.56.17.1.36.15.55.15s.39.02.59.06c.14.06.29.12.47.18.17.06.34.1.5.14.14.02.27.03.41.03.14,0,.27.02.39.07.09.02.18.06.27.09.09.04.19.07.29.09.06.02.14.05.23.08.09.03.19.06.29.08.05.01.09.02.13,0,.04,0,.07,0,.11,0,.04.02.07.05.11.07.04.02.07.04.11.06.07.02.15.03.23.03.08,0,.16,0,.25.03.06.02.12.06.18.1.06.04.12.08.2.1.02.01.05,0,.07,0,.02-.02.04-.02.07,0,.1.02.2.07.29.13.09.06.19.11.29.13.05.01.1.01.15,0,.05-.01.11,0,.17.02.05.02.1.06.14.11.04.05.1.09.16.11.07.04.15.07.22.08.07.02.14.04.21.07.02.02.06.06.09.09.04.04.09.05.17.04M31.34,55.9c.02-.07,0-.11-.07-.11,0,.08.03.11.07.11M49.94,51.94c.22-.17.44-.34.64-.49.21-.15.38-.34.51-.56-.06,0-.11-.02-.14-.05-.03-.03-.07-.05-.12-.05-.09-.01-.17,0-.26.07-.09.06-.16.03-.22-.07-.04.1-.1.13-.18.09-.08-.04-.15-.07-.2-.09-.06.02-.16.05-.29.08-.13.03-.23,0-.29-.07.01-.02.04-.03.07-.02.04.01.06,0,.06-.04-.05-.04-.08-.05-.1-.03-.02.02-.04.04-.07.07-.1.04-.21.06-.32.07-.11,0-.22,0-.32,0,.1.05.21.07.34.06.12-.01.21.03.24.13-.05.01-.08,0-.08-.03,0-.03-.02-.04-.05-.03-.27.02-.57.03-.88.03-.31,0-.63,0-.95.03-.05.01-.07,0-.07-.03,0-.03-.02-.04-.07-.03-.09.04-.18.05-.27.03-.09-.02-.18-.03-.25-.03-.05,0-.1,0-.14.02-.04.01-.08.02-.12.04-.47.04-.95.06-1.42.07-.47.01-.93.06-1.36.13.11.03.22.03.34,0,.11-.02.21-.01.3.04-.61.1-1.2.19-1.76.26-.57.07-1.13.17-1.71.3-.01.12-.08.18-.21.16-.13-.02-.24-.03-.33-.03-.12.14-.28.21-.48.22-.19.01-.38.05-.57.11-.17.05-.35.1-.54.16-.19.06-.35.11-.48.16-.09.02-.17.04-.24.05-.07,0-.16.02-.24.05-.21.06-.42.13-.62.21-.2.07-.4.14-.6.19-.16.14-.34.24-.53.3-.19.06-.39.13-.59.2-.09.04-.16.08-.23.14-.07.06-.15.11-.25.18-.05.02-.1.05-.15.07-.05.02-.11.05-.17.08-.1.06-.19.15-.26.25-.07.11-.16.19-.24.25-.06.02-.13.05-.2.08-.07.03-.13.07-.2.1-.11.06-.21.14-.31.23-.09.09-.2.17-.33.23-.01.06,0,.09.02.08.03,0,.03.02,0,.08-.07.12-.17.23-.28.32-.11.09-.2.22-.26.39.05.01.1.04.14.07.04.04.1.06.18.06.07.15.19.25.35.3.16.05.3.12.44.21.03,0,.04,0,.06-.03.01-.02.03-.03.06-.05.03.06.06.09.09.09.41.11.83.21,1.25.3.42.09.85.13,1.27.13.52-.02,1.06-.05,1.6-.07.55-.02,1.08-.07,1.6-.16.12-.03.25-.05.37-.07.12-.02.24-.05.34-.08l.17-.07c.2-.09.4-.15.62-.2.21-.04.42-.1.62-.16.21-.06.42-.12.63-.18.21-.06.39-.13.57-.23.04-.01.07-.04.09-.07.02-.04.06-.07.09-.09.17-.06.35-.13.54-.2.19-.07.37-.15.54-.25.19-.07.36-.16.52-.24.16-.09.32-.17.48-.26.85-.42,1.68-.88,2.49-1.37.82-.49,1.58-1.02,2.3-1.58M37.85,52s-.07.06-.12.06-.1.02-.12.06c.05.01.11,0,.19,0,.07-.02.09-.05.06-.1M40.82,51.38c-.09.03-.16.03-.23.03-.07,0-.12.02-.16.08.15.02.28-.01.39-.11M40.89,51.61s-.06.02-.07.06c.05,0,.07-.02.07-.06M41.43,51.51h-.15s-.07.02-.07.07c.04.01.08.02.13,0,.05,0,.08-.03.09-.08M41.98,51.44c-.07.01-.16.02-.24.02s-.15.01-.19.04c.06.02.14.03.22.02.09-.01.16-.04.21-.07M42.41,51.38s-.11-.02-.2-.02-.13.03-.16.09c.04.05.1.06.18.03.08-.03.14-.06.18-.1M43.39,51.27c-.06-.02-.14-.02-.24,0-.1.03-.17.05-.21.07.16.05.31.02.45-.07M43.02,51.07s.03.05.07.05c.05,0,.07-.02.06-.05-.02-.02-.07-.02-.13,0M45.33,51.21s.07-.06.13-.06c.06,0,.11,0,.13.03-.01.05-.05.07-.11.07s-.11-.01-.15-.04M46.49,50.71h-.16s-.08.02-.12.06c.03-.01.07-.02.14,0,.07,0,.12,0,.14-.05M46.62,50.86s-.06,0-.09,0c-.04,0-.07,0-.09,0h-.11c.06,0,.12,0,.18.03.06.02.1,0,.12-.05M46.92,50.8s-.05.05-.1.05c-.06,0-.08,0-.08.03.04,0,.1,0,.18,0,.08,0,.13,0,.16-.03-.04,0-.06-.02-.06-.06,0-.02,0-.04.03-.05.02,0,.03-.02.03-.05-.01-.01-.04-.02-.09,0-.05,0-.09,0-.13,0,.05.04.07.07.07.09M47.56,50.71c-.06-.05-.14-.07-.22-.06-.09.01-.16.03-.22.06.06.02.13.04.21.04s.16-.01.23-.04M48.12,50.84c-.06,0-.14,0-.23-.03-.09-.02-.16,0-.2.07.05.01.12.02.22.04.1.01.17-.01.21-.07M48.6,50.86s-.08.01-.14,0c-.06-.01-.1,0-.12.02.04,0,.09,0,.15.03.06.02.1,0,.11-.05M53.75,45.95c.17-.08.39-.17.64-.28.25-.11.52-.22.78-.34.27-.11.53-.22.77-.33.25-.11.46-.2.63-.27.05-.02.11-.06.18-.09.07-.04.13-.09.18-.15-.17-.01-.35,0-.51.06-.17.05-.33.11-.49.17-.12.04-.29.1-.49.18-.21.08-.42.17-.64.27-.22.1-.44.2-.63.3s-.35.19-.47.26l-.13.09-.24.13c-.1.06-.2.13-.31.2-.11.08-.19.14-.25.21.19-.07.33-.13.43-.18.1-.04.18-.08.24-.1.06-.02.11-.05.15-.06.04-.02.09-.04.17-.07"/>
  <path class="cls-1" d="M83.9,35.62c0,.19.02.33.06.44.04.11.07.2.1.27.03.07.05.16.06.24,0,.09-.02.21-.07.37-.26.16-.49.3-.69.42-.2.12-.39.23-.58.35-.19.11-.38.24-.58.37-.2.14-.43.3-.69.49-.56.43-1.05.86-1.47,1.27-.42.41-.86.89-1.31,1.44-.25.27-.52.59-.82.94-.3.35-.5.73-.6,1.11-.02.09-.04.18-.05.29,0,.11-.02.21-.04.3-.02.09-.05.17-.09.23-.04.06-.11.09-.2.09-.1.03-.18.01-.24-.04-.06-.05-.14-.09-.24-.13-.06-.1-.13-.2-.21-.29-.08-.09-.15-.2-.21-.33-.04-.21-.07-.33-.11-.36-.04-.03-.12-.1-.24-.21,0-.02,0-.04,0-.05,0,0,0-.03,0-.08l-.21-.22c.06-.14.11-.26.16-.37.04-.11.1-.22.16-.34-.2-.05-.39-.02-.57.09-.18.11-.36.21-.53.28-.2.08-.39.16-.56.26-.17.1-.34.2-.48.3-.03,0-.04,0-.05.02,0,.01-.03.01-.07,0-.97.63-1.93,1.28-2.87,1.92-.95.65-1.85,1.36-2.71,2.15.29-.35.63-.66,1.02-.95.39-.29.76-.58,1.09-.88-.1-.03-.19-.02-.26.03-.07.04-.15.1-.21.17-.07.07-.14.14-.21.21-.07.07-.16.12-.26.14-.1.1-.2.2-.29.29-.09.09-.22.16-.38.21-.12.19-.28.35-.46.48-.18.13-.35.27-.51.42.1-.11.23-.27.4-.47.17-.2.35-.35.55-.45.09-.06.17-.14.24-.22.07-.09.14-.16.21-.22.04-.02.09-.04.15-.05.06,0,.08-.06.06-.16.14-.06.27-.13.39-.21.12-.07.22-.17.3-.28.1-.09.22-.18.35-.27.14-.09.27-.18.41-.25.1-.05.19-.11.28-.18.09-.07.13-.15.13-.25.04-.01.07-.02.1-.03.03,0,.05-.03.07-.07l-.06-.09c-.04.08-.09.13-.16.18-.07.04-.14.08-.21.12-.07.04-.15.08-.23.12-.08.04-.15.1-.2.16-.07-.01-.13,0-.17.02-.04.02-.07.05-.1.08-.03.03-.07.06-.1.08-.04.02-.09.02-.15,0-.03.02-.03.04,0,.05.02,0,.04.03.04.07-.16.1-.33.19-.49.27-.17.08-.31.19-.44.33.01.02.03.03.05,0,.02-.02.05-.02.08,0-.01.05-.05.08-.11.1-.06.02-.11.04-.13.06-.03-.02-.03-.04,0-.06.02-.01.04-.03.04-.06-.05,0-.08.01-.09.04-.01.02-.04.04-.09.06-.01.03,0,.04.02.05.02,0,.04.02.04.03-.1.14-.22.23-.35.29-.14.06-.26.14-.35.25.06.01.11,0,.14-.07.03-.06.08-.08.14-.06-.07.05-.14.1-.21.16-.06.06-.13.07-.21.05-.1.14-.24.26-.41.36-.17.11-.29.23-.34.36-.07.02-.16.05-.24.07-.09.03-.12.09-.11.19-.11.07-.25.17-.4.28-.16.11-.26.24-.31.39-.26.21-.5.44-.73.68-.22.24-.42.53-.6.87.1-.06.2-.15.3-.26.1-.11.19-.22.26-.32.04.05.06.07.07.06.01-.01.02,0,.04.04-.01.02-.04.03-.09.02-.05-.01-.07.02-.06.09,0,.02,0,.02.03,0,.02-.03.05-.03.08,0-.1.14-.19.27-.28.41-.09.14-.18.26-.28.37.1.04.18.02.25-.05.07-.07.13-.12.2-.16,0,.04,0,.06,0,.07,0,0,0,.02,0,.05.67-.15,1.33-.35,1.98-.59.65-.24,1.3-.48,1.96-.72,1.19-.44,2.4-.82,3.63-1.17,1.23-.34,2.51-.67,3.85-.98.24-.05.46-.09.66-.13.21-.04.44-.07.72-.09.39-.02.78-.06,1.18-.11.4-.05.81-.09,1.22-.12.41-.03.82-.04,1.24-.04.42,0,.82.05,1.22.12-.21.02-.42.04-.62.05-.21,0-.4.02-.59.05-.14.02-.26.06-.37.11-.11.05-.22.09-.34.13-.1.02-.2.03-.3.03-.1,0-.19,0-.26,0-.49.07-.98.2-1.49.37-.71.2-1.43.39-2.16.57-.73.18-1.43.4-2.1.64-.44.16-.9.3-1.39.42-.49.12-.97.27-1.43.46.4-.05.79-.14,1.17-.28.38-.14.78-.23,1.2-.28-.42.16-.87.32-1.34.47-.47.15-.93.29-1.36.41-.17.04-.34.09-.48.17-.15.07-.31.14-.49.19-.17.05-.33.1-.48.15-.14.05-.3.09-.46.13.04-.05.08-.08.14-.09.06-.01.1-.04.14-.09-.1,0-.19.03-.28.07-.09.05-.14.11-.15.17-.47.15-.92.32-1.35.51-.43.19-.87.37-1.32.53.02.06.03.1.02.12-.01.02-.02.04-.04.07.47-.19.95-.36,1.44-.53.49-.17.98-.34,1.49-.51-.02.1-.07.17-.15.21-.07.04-.16.08-.25.11-.09.03-.19.06-.28.07-.09.02-.16.05-.21.08-.4.1-.78.23-1.16.4-.37.17-.78.32-1.21.46.01-.03.03-.04.06-.06.02-.01.04-.04.06-.07-.01-.01-.03,0-.05,0-.02.02-.04.02-.07,0,0-.01.02-.02.05-.03.03,0,.05-.04.05-.1-.17.04-.35.09-.51.16-.17.07-.34.13-.51.18-.17.05-.35.08-.52.1-.17.02-.35,0-.52-.07-.04-.06-.09-.1-.15-.12-.06-.02-.08-.07-.06-.14-.17-.1-.26-.21-.26-.32-.29-.05-.46-.18-.52-.38-.06-.21-.06-.45.02-.74.82-1.19,1.72-2.28,2.69-3.26.97-.98,2.02-1.89,3.13-2.73,1.01-.81,2.16-1.59,3.45-2.33,1.29-.75,2.62-1.51,3.97-2.3.51-.3.98-.56,1.42-.78.44-.22.86-.44,1.28-.65.42-.21.84-.42,1.27-.63.43-.2.89-.44,1.39-.7.17-.08.39-.19.64-.35.25-.16.48-.27.66-.32.14,0,.25,0,.35,0,.1,0,.18.04.24.1M64.58,49.56c.09-.04.14-.09.17-.17.02-.07.07-.13.13-.17-.14.02-.24.14-.3.34M66.04,47.88s0,.1-.03.14c-.02.04-.07.06-.14.06,0,.01,0,.02.03.02s.03.01.03.04c-.1.08-.2.15-.29.22-.09.07-.15.16-.18.26-.04.04-.07.04-.08.02-.02-.02-.05-.03-.1-.02.1-.12.22-.25.35-.36.14-.12.27-.25.41-.38M66.24,48.1c-.06.16-.19.34-.37.52-.19.19-.35.37-.49.54.12-.22.26-.42.41-.58.15-.16.3-.32.45-.49M66.56,47.34c-.15.21-.32.38-.5.5.09-.11.17-.21.24-.31.07-.09.16-.16.26-.2M67.19,47.19c-.1.12-.21.25-.35.36-.13.12-.26.25-.38.38.06-.15.16-.28.31-.4.14-.12.28-.23.42-.34M67.23,46.63s.04.06,0,.09c-.04.04-.07.07-.09.09-.03-.05-.02-.09.02-.11.04-.02.06-.05.07-.07M70.29,44.72c-.06,0-.13.02-.2.07-.07.04-.12.1-.14.16.04-.05.11-.07.21-.07.1,0,.14-.05.13-.16M70.01,49.3c.16-.06.34-.12.53-.16.19-.04.34-.11.44-.2-.16.06-.34.11-.53.15-.19.04-.34.11-.44.21M70.03,44.16c.14.04.24.02.3-.04.06-.06.14-.11.24-.15-.01-.05,0-.08.03-.08.03,0,.07,0,.1,0s.07,0,.11-.02c.04-.01.06-.04.06-.07-.15,0-.3.04-.44.11-.14.07-.28.16-.4.26M70.61,44.52c.1-.02.19-.06.26-.1.07-.04.11-.12.11-.23-.09,0-.16.03-.22.1-.06.07-.11.15-.15.23M70.87,43.68c.1.02.17.03.22,0,.05-.02.11-.05.17-.1.24.04.44-.03.6-.2.16-.17.33-.31.5-.44-.25.11-.49.25-.73.4-.24.16-.49.26-.77.33M71.06,48.94c.1-.05.21-.09.34-.12.12-.03.22-.08.3-.14-.12.01-.25.03-.36.07-.12.03-.21.1-.27.2"/>
  <path class="cls-1" d="M87.35,43.98c-.05.06-.05.12,0,.17v.08l-.04.04s-.04,0-.06.03c-.01.02-.03.03-.06.03l-.02.06c-.09.06-.17.12-.26.17-.09.05-.17.1-.24.15-.1.05-.2.1-.29.15-.09.05-.18.09-.27.13,0,.01,0,.02-.02.02s-.02.01-.04.04c-.09.02-.16.07-.22.13-.06.06-.13.1-.2.11,0-.01.02-.03.06-.04.04-.01.05-.03.04-.04-.04.01-.08.02-.12.03-.04,0-.08.02-.1.05v-.02l-.07.08s-.02.01-.06,0c-.02.07-.08.11-.17.11.05.04.07.04.07,0,0,.02-.05.06-.15.09-.01,0-.03.01-.06.04-.06.07-.15.12-.26.15.04-.02.08-.05.13-.07.05-.02.09-.05.11-.07-.09.04-.16.07-.23.11-.07.04-.13.09-.2.15-.04.02-.06.05-.07.06,0,.02-.02.04-.03.05-.05,0-.09,0-.11,0-.02,0-.06.03-.09.08l-.11.13c-.1,0-.16,0-.19.02l-.15.06v-.04c-.1.02-.18.07-.23.13-.06.06-.14.13-.25.21l-.19.06c-.06.01-.11.03-.14.06-.03.02-.06.05-.08.07-.03.03-.06.05-.09.07-.04.02-.07.05-.11.07-.03-.01-.05,0-.08.03-.03.03-.05.04-.05.03-.01.01-.02.03-.04.05-.01.02-.03.04-.06.05-.1.03-.16.06-.19.1-.02.04-.06.1-.11.16-.05.02-.1.05-.15.07-.05.02-.09.04-.11.07-.1.07-.18.16-.23.25-.06.09-.13.17-.23.23-.03-.03-.03-.04,0-.06.02-.01.04-.03.04-.06.15-.2.31-.39.49-.56.18-.17.35-.35.51-.54.01-.01.03-.02.06-.02,0-.02,0-.04,0-.05,0,0,0-.02,0-.03.06-.02.1-.04.11-.06.01-.01.02-.03.04-.06l-.02.02c0-.07.03-.11.09-.11.02,0,.03,0,.02,0-.01,0-.02-.02-.02-.05h.02l.04.04c.12-.1.25-.21.37-.34.12-.12.25-.23.37-.32h-.04s.05-.03.08-.05c.03-.02.06-.04.08-.06.02-.03.04-.04.06-.04s.02-.01.02-.04c.09-.06.17-.13.26-.2.09-.08.17-.15.24-.22.09-.07.18-.15.27-.21.09-.07.18-.13.27-.2-.52.21-1.01.43-1.46.66-.45.23-.9.48-1.33.74-.06.04-.13.07-.2.09-.07.03-.13.07-.18.13h-.02c-.1.06-.2.12-.29.17-.09.05-.19.1-.29.15-.07.06-.14.11-.21.16-.06.04-.13.1-.21.16-.02.03-.06.06-.11.09-.05.04-.09.07-.11.09,0,.03-.05.04-.15.04.01.01,0,.02,0,.02s-.03.01-.05.04c-.67.47-1.33,1-1.98,1.59-.65.58-1.19,1.21-1.62,1.88-.05,0-.09.01-.13.04,0-.02-.02-.03-.06-.03-.04,0-.07,0-.09-.03v-.02s-.06-.04-.09-.04-.07-.01-.09-.04c-.05-.02-.09-.04-.13-.06-.04-.01-.06-.03-.06-.06-.04.02-.07.02-.09,0-.02-.03-.05-.04-.07-.06v-.09s-.07-.03-.07-.08c0-.06.03-.1.07-.14-.01-.01-.03-.02-.05,0-.02,0-.03,0-.03,0-.03-.05-.02-.09.02-.13.04-.04.07-.07.09-.09.06-.14.14-.25.22-.34.09-.09.17-.19.24-.32.06-.06.11-.12.16-.17.04-.05.08-.11.12-.17.05-.06.09-.11.13-.16.04-.04.07-.1.09-.16.02-.01.05-.04.08-.09.03-.05.07-.09.1-.13l1.42-1.92s.05-.06.08-.1c.03-.04.08-.08.14-.1.09-.17.21-.34.37-.5.07-.06.14-.14.2-.22.06-.09.13-.18.21-.28.07-.06.14-.14.21-.22.06-.09.14-.16.22-.22.16-.14.29-.29.39-.47.02-.01.05-.04.07-.07.02-.04.05-.07.07-.09.02-.01.04-.03.05-.04,0-.01.02-.03.05-.06.02-.01.05-.02.08-.04.03-.01.06-.02.08-.02.05.04.11.09.18.15.07.06.14.13.21.2.07.07.13.15.2.22.06.07.12.12.17.16l.3.47h.04s.03.01.06.04c0,.02,0,.04.02.04,0,.01,0,.02.02.02.15-.06.29-.12.41-.19.12-.06.27-.13.45-.19.4-.17.78-.35,1.15-.53.37-.18.77-.34,1.2-.48.11-.02.22-.06.33-.1.11-.04.21-.08.31-.1.14-.03.26-.05.38-.07.12-.02.24-.02.36,0,0,.01,0,.02.02.02l.02-.02s.02.03.02.02,0-.02.02-.02c.05,0,.07.02.07.06l-.06.06c.09,0,.13,0,.13-.02.07,0,.12.03.13.09.05-.04.1-.03.14,0,.04.04.08.07.1.07.07-.02.1-.06.07-.1-.03-.04-.03-.03,0,.03h-.04s0,.05,0,.04c0-.01,0,0,0,.04v.02s-.03,0-.05.02c-.02.01-.04.02-.07.02.05.03.09.03.12,0,.03-.02.06-.02.08,0,0-.02.01-.04.04-.06-.03.04-.02.06,0,.07.03,0,.03.02,0,.05h.04ZM82.7,45.6c.1-.05.16-.11.19-.17-.11.11-.22.17-.32.17l.02.02c-.1.04-.17.08-.22.13-.05.05-.12.09-.22.11,0,.02-.03.05-.07.06-.05.02-.07.05-.07.08.14-.06.25-.13.35-.21.09-.07.2-.14.31-.19,0-.01.02-.02.06-.02M82.65,46.59v-.04l.02-.02s0,.03-.02.06M82.78,46.87l-.02.04h-.02l.04-.04ZM84.79,45.73l-.04.02-.02.02.02-.02s.03-.02.04-.02M84.81,45.71s0,.02-.02.02l.02-.02ZM86.13,43.72c.06-.02.12-.03.18,0,.06.02.12.02.18,0-.2-.06-.44-.05-.73.04h-.02c.07-.01.14-.02.21-.03.06,0,.12,0,.19,0-.06.01-.11.02-.14.02h-.08s.07,0,.15.02c.07.01.14,0,.21-.02,0-.04-.02-.05-.06-.03-.04.02-.06.02-.07,0M87.35,44.15v-.04.06-.02Z"/>
  <path class="cls-1" d="M91.94,44.24s.02.12,0,.22c.02.06.08.12.17.17.09.05.14.11.17.17-.01.01-.02.03-.02.04-.01.01-.02.04-.02.07-.01.06-.01.13,0,.21.01.08.03.15.06.21-.04.04-.04.09,0,.17.01.05.02.1.04.15.01.05.01.11,0,.17.01.01.03.02.06.02s.04.01.06.04c-.02.01-.05,0-.07,0-.02-.02-.05-.02-.07,0-.03.07-.06.11-.11.11-.07.05-.14.07-.19.06-.05-.01-.11-.03-.17-.04-.04-.01-.11,0-.22.02l-.22.06c-.21.04-.42.08-.63.14-.21.06-.41.1-.63.14-.02.02-.05.04-.08.05-.03,0-.07.02-.1.05-.17.06-.35.12-.51.17-.17.05-.35.11-.53.17-.03,0-.05,0-.08.02-.03.01-.07.02-.1.04-.03.01-.06.02-.09.03-.04,0-.07.02-.09.05-.04.01-.07.02-.09.03-.03,0-.06.02-.09.03-.16.06-.31.12-.46.19-.14.06-.3.12-.46.19-.05.02-.1.05-.15.07-.05.02-.1.04-.15.06-.36.17-.71.35-1.04.53-.34.18-.68.36-1.03.55-.05.03-.1.05-.15.08-.05.03-.11.06-.17.08-.05.05-.11.08-.18.1-.07.02-.13.06-.18.12.05.04.1.06.15.07.05,0,.09,0,.13,0,.09,0,.16,0,.21-.02.05-.01.09-.02.13-.02s.07-.01.11-.04c.46-.04.91-.11,1.35-.23.44-.12.89-.23,1.33-.33.06-.02.12-.04.16-.05.04,0,.1-.02.16-.05.1-.02.19-.05.28-.08.09-.03.19-.06.3-.08.05,0,.12-.01.22-.04.21-.06.42-.13.62-.2.2-.07.4-.13.62-.2.05-.01.1-.03.14-.05.04-.02.1-.03.16-.05.2-.07.4-.16.6-.25.2-.09.42-.16.65-.21-.21.1-.43.19-.65.26-.22.08-.45.18-.67.32-.04.03-.08.05-.12.06-.04.02-.1.04-.16.07-.2.09-.39.17-.59.25-.19.08-.4.17-.61.27-.1.05-.18.08-.24.09-.1.04-.2.08-.29.12-.09.04-.18.08-.27.1-.06.02-.12.05-.17.07-.05.02-.09.03-.13.05-.11.07-.24.14-.37.19-.14.05-.27.09-.41.13-.14.04-.27.08-.4.12-.13.04-.24.11-.33.2-.07.07-.16.12-.24.14-.09.02-.17.03-.25.04-.08,0-.16.02-.25.03s-.17.06-.24.13c-.06,0-.12,0-.18.02-.06.01-.11.04-.16.07-.05,0-.1,0-.15.02-.05.01-.11.03-.17.06-.12.03-.25.04-.38.06-.13.01-.27.02-.42.04-.12-.01-.24-.05-.35-.1-.11-.06-.19-.12-.24-.2.01.1,0,.13-.04.09-.04-.04-.06-.13-.06-.29s.04-.37.11-.63c.08-.27.24-.58.49-.94.17-.21.36-.43.57-.65.21-.22.41-.42.63-.6.1.01.17-.02.21-.1.04-.08.11-.11.2-.08-.01-.02-.02-.04,0-.05,0,0,0-.02,0-.05v.09s.09-.02.11-.06c.02-.04.04-.05.06-.04-.01.07-.03.11-.06.11s-.05.01-.07.04c-.04,0-.06,0-.07.03,0,.02-.02.04-.03.07-.04.03-.07.04-.11.05-.04,0-.06.02-.06.05.03.04.04.05.06.05.01,0,.02-.02.02-.05,0,.07-.04.14-.13.21-.1.06-.2.14-.3.22-.1.09-.18.17-.24.26.07-.02.14-.07.19-.14.05-.07.12-.11.22-.14.29-.24.57-.48.85-.73.28-.25.58-.47.91-.67-.01-.04,0-.06.05-.07.04-.01.07-.03.08-.06-.06,0-.11.01-.13.04-.03.02-.06.05-.11.07-.04.02-.08.04-.13.06-.05.01-.1.04-.15.07-.06.05-.13.1-.21.15-.07.05-.16.09-.24.11.02-.04.05-.06.08-.06.03,0,.06-.03.08-.07.06-.06.09-.1.09-.11l.22-.17s.03-.03,0-.05c-.02-.02-.02-.04,0-.07.06-.04.12-.07.19-.09.06-.02.11-.07.13-.15.17-.14.36-.27.56-.39.2-.12.4-.24.62-.34.42-.24.86-.44,1.32-.6.22-.06.45-.11.67-.16.22-.04.46-.07.71-.07h.33c.09,0,.19.02.29.06.1,0,.16.02.19.07.02.01.06.03.09.06.04.03.08.05.13.07.05.02.11.05.17.07.06.02.13.05.21.08M84.1,47.69s.07,0,.09-.02c.01-.01.02-.02.04-.02-.02,0-.05,0-.07,0-.02,0-.04.02-.07.03M84.83,47.06l.04-.04.04-.04-.07.04s-.01.02,0,.04M86.28,47.09h.04s.03-.01.06-.04c0-.01-.03,0-.09.04M89.16,45.45c-.26.07-.52.17-.77.28-.25.11-.49.24-.7.37.36-.1.71-.22,1.05-.35.34-.13.68-.23,1.03-.31.11-.05.23-.08.35-.1.12-.02.23-.05.35-.1-.06-.04-.13-.05-.21-.05s-.16,0-.23,0l-.84.24Z"/>
  <path class="cls-1" d="M99.05,43.42c.05.1.1.19.15.27.05.08.11.16.17.25,0,.04-.01.07-.04.09,0,.11-.03.21-.08.29-.06.08-.12.16-.2.22-.07.07-.16.13-.24.19-.09.06-.16.12-.22.2-.21.1-.39.22-.52.35-.14.14-.3.25-.5.35-.03.03-.05.05-.08.07-.03.02-.07.05-.1.08.01.02.03.03.06.03.02,0,.04-.02.04-.03-.07.09-.17.17-.27.26-.11.09-.19.19-.25.3-.04-.03-.05-.04-.03-.04s.02,0,0-.02c-.12.1-.22.21-.3.32-.07.11-.19.21-.34.28,0,.02,0,.04.02.05.01,0,0,0-.02,0-.04,0-.07.02-.08.06-.02.04-.04.06-.07.07l.02.04c-.04.08-.09.15-.17.21-.07.07-.14.15-.2.23l-.11.04s0,.05.03.05c.02,0,.02,0,0,.03-.03.01-.04.01-.05,0,0-.01-.03,0-.07.02-.01-.01-.02,0-.02,0s0,.03-.02.03c.01.02.02.03.02.03,0,0,0,0,.02.03-.09.14-.17.22-.26.26-.02.14-.09.26-.19.36-.1.1-.16.2-.19.32h-.06c0,.06-.03.12-.07.19-.01-.01-.05-.02-.11-.02,0-.04.02-.05.06-.03.04.02.07,0,.09-.05-.03-.02-.04-.03-.06-.02-.01.01-.03.03-.06.04.06-.14.13-.27.21-.39.07-.12.14-.25.19-.39-.01-.01-.03-.02-.06-.02-.05.06-.09.13-.11.2-.02.07-.07.13-.13.18,0,.04,0,.07,0,.08,0,.02,0,.04,0,.07-.16.25-.29.53-.37.84-.09.31-.12.63-.11.97,0,.02,0,.03.03.02.02-.01.03-.02.05-.02,0,.02,0,.04,0,.05,0,0,0,.01,0,.03-.01-.01-.03-.01-.06,0,.01,0,.01,0,0,.02-.01.01,0,.01.02,0,0,.01,0,.03,0,.06,0,.02,0,.04,0,.06.02.21.11.35.25.4.14.06.31.06.49.03.19-.04.37-.1.55-.19.18-.09.33-.16.44-.22-.04.04-.08.07-.13.1-.05.03-.09.07-.11.12-.19.1-.38.2-.59.29-.21.09-.44.15-.7.18-.11,0-.21-.04-.29-.11-.08-.07-.15-.16-.2-.26-.09-.5-.08-.95,0-1.35.09-.4.23-.78.42-1.14.19-.35.39-.7.61-1.03.22-.33.41-.67.59-1.02-.21.14-.42.27-.63.4-.21.13-.42.26-.63.38.01.02.03.04.06.04s.04,0,.06.02c-.03.01-.06.02-.1.04-.04.01-.08.04-.1.07-.21.11-.42.22-.63.33-.21.11-.4.24-.58.4-.11.06-.23.12-.35.18-.12.06-.25.11-.38.18-.17.14-.35.27-.53.41-.18.14-.39.25-.63.34.01.02.01.04,0,.06-.01.01-.01.03,0,.06-.04,0-.07,0-.09-.03-.03-.02-.05-.03-.07-.05-.01,0-.02,0-.02,0s0,0-.02,0h-.02s-.1-.08-.14-.12c-.04-.04-.09-.08-.14-.12-.05-.05-.1-.11-.16-.18-.06-.07-.1-.14-.13-.22-.03-.07-.04-.15-.03-.22.01-.07.06-.14.13-.21v-.06c.4-.47.84-.9,1.32-1.29.48-.39.99-.75,1.52-1.08.04-.01.04,0,.02,0-.03.02-.04.03-.04.05.06,0,.12-.02.18-.07.06-.04.1-.09.14-.14.01-.01.01-.02,0,0-.01,0-.03,0-.04,0,.72-.47,1.5-.88,2.32-1.21.83-.34,1.74-.61,2.75-.82.03-.01.05,0,.07.06.05-.02.09-.05.12-.08.03-.03.06-.03.08,0l.06-.06ZM92.98,47.49c.53-.3,1.06-.6,1.57-.91.51-.31,1-.65,1.47-1.01-.52.29-1.04.59-1.54.9-.5.32-1,.66-1.5,1.02"/>
  <path class="cls-1" d="M98.67,46.11s0-.04.02-.04.02.01.02.04c.02-.02.05-.05.07-.08.02-.03.06-.06.09-.08,0-.05.02-.09.07-.11.04-.02.08-.07.1-.13.4-.39.79-.79,1.18-1.21.39-.42.78-.81,1.18-1.18.29-.3.58-.58.87-.83.29-.25.58-.52.87-.79.14-.1.26-.2.37-.32.11-.11.25-.2.43-.26-.2.22-.42.42-.66.59-.24.17-.43.4-.57.7-.04.05-.08.09-.13.12-.05.03-.08.08-.09.14-.03.01-.04.02-.05.03,0,0-.03.02-.07.05,0,.02,0,.03.03.02.02-.01.03-.02.03-.04-.07.16-.19.31-.35.44-.16.13-.28.29-.38.48.06-.04.13-.1.2-.2.07-.09.14-.15.21-.18-.11.15-.24.29-.37.42-.14.13-.28.26-.43.4,0,.06-.02.11-.07.15-.04.04-.09.07-.13.1-.04.03-.09.07-.13.1-.04.04-.07.09-.08.15.14-.09.25-.18.34-.28.09-.1.2-.19.34-.28-.06.09-.12.16-.19.21-.06.05-.12.11-.19.19,0,.02,0,.03,0,0,0-.02.02-.02.05,0-.2.17-.38.38-.55.62-.17.24-.36.43-.57.58.01.02,0,.05-.05.07-.04.02-.03.04.05.04-.04.1-.09.18-.17.25-.07.07-.15.15-.22.23l.02.04c-.04.07-.11.16-.21.25-.1.09-.16.17-.19.23,0,.03,0,.05.02.07.01.02.02.04.02.06.05-.01.12-.06.21-.14.09-.08.15-.11.2-.08.04-.01.06-.04.06-.08-.04.01-.03,0,.02-.02.05-.02.11-.06.19-.09.07-.04.15-.08.21-.12.07-.04.11-.08.12-.12.02-.02.05-.04.08-.04s.05-.01.07-.04c.55-.36,1.09-.75,1.64-1.18.55-.42,1.09-.83,1.64-1.21.02-.02.03-.04,0-.05-.02,0,0-.02.03-.05.03-.01.07-.02.12,0,.06,0,.1-.02.12-.07.01.06.05.07.1.02.06-.05.13-.06.21-.04.06,0,.1.04.11.12.01.08.05.16.11.25.04.03.07.05.1.08.03.03.07.06.1.08-.03.1,0,.18.05.23.06.06.08.12.07.2-.01.01-.03.02-.06.04.1.1.13.22.1.35-.03.14-.03.26,0,.37.32-.15.65-.32.99-.52.34-.2.68-.36,1.04-.49.1-.04.2-.08.31-.12.11-.04.21-.1.31-.18.07.1.16.19.25.27.09.08.17.18.23.31,0,.03,0,.04,0,.04s0,0,0,.02c.17.2.21.46.11.79-.1.33-.26.64-.47.92-.24.3-.44.53-.62.71-.17.17-.34.32-.49.45-.16.12-.31.25-.46.36-.15.12-.3.26-.47.42-.29.25-.53.44-.74.58-.21.14-.41.3-.63.49-.03.05-.07.08-.12.1-.06.02-.1.05-.12.1-.05.04-.09.06-.13.07-.04.01-.09.03-.15.06-.06.03-.14.06-.23.11-.09.05-.21.12-.36.22.2-.26.37-.47.5-.62.14-.15.26-.27.35-.36.1-.09.18-.17.24-.23.06-.06.12-.13.19-.21.07-.11.19-.26.34-.44.15-.18.27-.33.35-.44.06-.05.11-.1.14-.16.03-.06.06-.1.08-.14.03-.05.05-.09.07-.13l.11-.11s.05-.05.07-.08c.02-.03.03-.05.05-.05.07-.1.16-.19.24-.27.09-.08.17-.17.24-.27.06-.02.12-.08.18-.18.06-.09.11-.17.16-.23.1-.1.17-.17.21-.22.04-.05.11-.13.22-.24.04-.05.09-.13.16-.25.07-.12.1-.17.1-.16-.62.27-1.21.57-1.76.89-.55.32-1.13.63-1.73.94-.03.05-.02.07.02.05.04-.02.04,0,.02.05-.04-.02-.07-.03-.1-.02-.03.01-.07,0-.12-.02-.04.06-.1.12-.2.19-.09.06-.18.09-.27.09-.03.06-.04.09-.05.08,0,0,0,0,.03.03-.03.03-.04.03-.06.02-.01-.01-.03-.02-.06-.02l-.02.04s0-.02-.02-.02c-.03,0-.04,0-.04.02,0,.07-.04.11-.11.11,0-.01,0-.02.02-.02s.02-.01.02-.04c-.06.02-.12.06-.18.11-.06.05-.13.09-.21.11-.01.01,0,.02,0,.03.02,0,0,.03-.03.08-.03-.05-.04-.06-.06-.04-.01.02-.03.04-.06.04-.04,0-.05.01-.03.04.02.02.02.06,0,.09-.1-.01-.17.01-.21.08-.04.06-.1.07-.18.04-.04.04-.04.05-.02.04.03-.01.03,0,0,.04.01-.02,0-.02-.05.03-.04.04-.08.06-.1.06h-.02s-.06.05-.09.11l-.19.06-.45.32s-.03.04-.04.05c-.01,0-.03.02-.06.05-.05.04-.1.06-.14.07-.04.01-.08.05-.1.11-.16.05-.29.05-.39,0-.02-.02-.05-.05-.07-.07-.02-.03-.04-.06-.07-.09.01-.09,0-.15-.05-.19-.04-.04-.1-.06-.16-.07.06-.05.07-.11.03-.17-.04-.06-.05-.12-.03-.17-.03-.04-.05-.04-.07,0-.02.04-.02.01,0-.07.19-.06.34-.17.47-.34.12-.16.25-.29.39-.39-.04,0,0-.06.13-.18.12-.12.28-.26.46-.42.18-.16.36-.32.53-.49.17-.16.29-.28.35-.35-.32.17-.57.33-.74.48-.17.14-.3.25-.38.31-.01,0-.05.01-.11.04-.06.02-.1.05-.11.07-.1.07-.17.13-.21.17-.04.04-.1.08-.16.13-.04-.02-.07-.02-.09.02-.02.04-.05.06-.07.06.05.04.04.07-.02.08-.06.02-.11.04-.15.06,0,.03-.02.04-.05.05-.03,0-.05.02-.05.05l-.09.04.02.09s-.07-.02-.1,0c-.03.03-.07.04-.12.03.04.03.03.04,0,.04s-.07.03-.08.09c-.21.07-.39.22-.54.43-.12.05-.23.12-.33.22-.09.1-.18.18-.27.24v-.06s-.04,0-.06.02c-.01.02-.03.04-.06.04,0,.01,0,.02.03.03.02,0,.02,0,0,0-.06.03-.12.06-.16.11-.04.05-.08.09-.1.13-.01,0-.05.03-.11.08-.06.06-.14.12-.22.21-.09.08-.18.16-.28.23-.1.07-.19.12-.26.15.04.02.04.04.02.05-.03,0-.05.02-.07.05.01.03.04.02.08-.03.04-.04.08-.05.1-.03l-.54.37h-.07c-.06.15-.15.26-.27.34-.12.08-.21.2-.27.35-.04-.01-.07,0-.11.02-.04.02-.08.04-.13.04.02,0,.04.01.04.04s-.01.05-.04.07c.04,0,.06-.02.07-.05.01-.03.04-.04.07,0,.03.04.02.08,0,.12-.03.04-.08.07-.14.07.01-.04.01-.06,0-.07-.01,0-.03,0-.05,0s-.03,0-.05,0c-.01,0,0-.02.02-.05h-.17c.03-.07.02-.14-.02-.19-.02,0-.04.01-.04.04v.06c-.07-.1-.15-.19-.21-.27-.07-.08-.12-.18-.16-.29,0-.02,0-.04.03-.05.02,0,.03-.02.03-.05-.02-.05-.05-.07-.07-.07-.04-.03-.04-.05-.02-.06.03-.02.05-.04.07-.07-.02-.03-.05-.03-.07-.02-.02.01-.05,0-.07-.02.01-.04.03-.06.07-.07.03-.01.03-.03,0-.06.11-.09.22-.19.32-.31.1-.12.2-.23.3-.35.04-.05.06-.08.07-.08,0,0,0,0,0,0,0,0,0,0,0,0,0,0,.03-.04.07-.1.06-.09.13-.17.2-.24.07-.07.15-.16.23-.26-.01,0-.01,0,0-.02.03-.04.05-.07.08-.1.03-.03.06-.07.08-.12.04,0,.06-.02.07-.07.06-.05.13-.12.21-.22.07-.1.14-.18.21-.24.02-.01.05-.01.07,0,.02,0,.02,0,0,0,.05-.04.1-.09.14-.17.04-.07.09-.11.14-.11.02-.06.07-.13.13-.21.06-.07.12-.15.17-.22v.09c.1-.21.24-.39.43-.54.19-.15.34-.31.47-.49"/>
  <path class="cls-1" d="M115.34,44.24s.02.12,0,.22c.02.06.08.12.17.17.09.05.14.11.17.17-.01.01-.02.03-.02.04-.01.01-.02.04-.02.07-.01.06-.01.13,0,.21.01.08.03.15.06.21-.04.04-.04.09,0,.17.01.05.02.1.04.15.01.05.01.11,0,.17.01.01.03.02.06.02s.04.01.06.04c-.02.01-.05,0-.07,0-.02-.02-.05-.02-.07,0-.03.07-.06.11-.11.11-.08.05-.14.07-.19.06-.05-.01-.11-.03-.17-.04-.04-.01-.11,0-.22.02l-.22.06c-.21.04-.42.08-.63.14-.21.06-.41.1-.63.14-.02.02-.05.04-.08.05-.03,0-.07.02-.1.05-.17.06-.35.12-.51.17-.17.05-.35.11-.53.17-.03,0-.05,0-.08.02-.03.01-.07.02-.1.04-.03.01-.06.02-.09.03-.04,0-.07.02-.09.05-.04.01-.07.02-.09.03-.03,0-.06.02-.09.03-.16.06-.31.12-.46.19-.14.06-.3.12-.46.19-.05.02-.1.05-.15.07-.05.02-.1.04-.15.06-.36.17-.71.35-1.04.53-.34.18-.68.36-1.03.55-.05.03-.1.05-.15.08-.05.03-.11.06-.17.08-.05.05-.11.08-.18.1-.07.02-.13.06-.18.12.05.04.1.06.15.07.05,0,.09,0,.13,0,.09,0,.16,0,.21-.02.05-.01.09-.02.13-.02s.07-.01.11-.04c.46-.04.91-.11,1.35-.23.44-.12.89-.23,1.33-.33.06-.02.12-.04.16-.05.04,0,.1-.02.16-.05.1-.02.19-.05.28-.08.09-.03.19-.06.3-.08.05,0,.12-.01.22-.04.21-.06.42-.13.62-.2.2-.07.4-.13.62-.2.05-.01.1-.03.14-.05.04-.02.1-.03.16-.05.2-.07.4-.16.6-.25.2-.09.42-.16.65-.21-.21.1-.43.19-.65.26-.22.08-.45.18-.67.32-.04.03-.08.05-.12.06-.04.02-.1.04-.16.07-.2.09-.39.17-.59.25-.19.08-.4.17-.61.27-.1.05-.18.08-.24.09-.1.04-.2.08-.29.12-.09.04-.18.08-.27.1-.06.02-.12.05-.17.07-.05.02-.09.03-.13.05-.11.07-.24.14-.37.19-.14.05-.27.09-.41.13-.14.04-.27.08-.4.12-.13.04-.24.11-.33.2-.08.07-.16.12-.24.14-.09.02-.17.03-.25.04-.08,0-.16.02-.25.03-.09.01-.17.06-.24.13-.06,0-.12,0-.18.02-.06.01-.11.04-.16.07-.05,0-.1,0-.15.02-.05.01-.11.03-.17.06-.12.03-.25.04-.38.06-.13.01-.27.02-.42.04-.12-.01-.24-.05-.35-.1-.11-.06-.19-.12-.24-.2.01.1,0,.13-.04.09-.04-.04-.06-.13-.06-.29s.04-.37.11-.63c.07-.27.24-.58.49-.94.17-.21.36-.43.57-.65.21-.22.41-.42.63-.6.1.01.17-.02.21-.1.04-.08.11-.11.2-.08-.01-.02-.02-.04,0-.05,0,0,0-.02,0-.05v.09s.09-.02.11-.06c.02-.04.04-.05.06-.04-.01.07-.03.11-.06.11s-.05.01-.07.04c-.04,0-.06,0-.07.03,0,.02-.02.04-.03.07-.04.03-.07.04-.11.05-.04,0-.06.02-.06.05.02.04.04.05.06.05.01,0,.02-.02.02-.05,0,.07-.04.14-.13.21-.1.06-.2.14-.3.22-.1.09-.18.17-.24.26.07-.02.14-.07.19-.14.05-.07.12-.11.22-.14.29-.24.57-.48.85-.73.28-.25.58-.47.91-.67-.01-.04,0-.06.05-.07.04-.01.07-.03.08-.06-.06,0-.11.01-.13.04-.03.02-.06.05-.11.07-.04.02-.08.04-.13.06-.05.01-.1.04-.15.07-.06.05-.13.1-.21.15-.07.05-.16.09-.24.11.02-.04.05-.06.08-.06.03,0,.06-.03.08-.07.06-.06.09-.1.09-.11l.22-.17s.03-.03,0-.05c-.02-.02-.02-.04,0-.07.06-.04.12-.07.19-.09.06-.02.11-.07.13-.15.17-.14.36-.27.56-.39.2-.12.4-.24.62-.34.42-.24.86-.44,1.32-.6.22-.06.45-.11.67-.16.22-.04.46-.07.71-.07h.33c.09,0,.19.02.29.06.1,0,.16.02.19.07.02.01.06.03.09.06.04.03.08.05.13.07.05.02.11.05.17.07.06.02.13.05.21.08M107.5,47.69s.07,0,.09-.02c.01-.01.02-.02.04-.02-.02,0-.05,0-.07,0-.02,0-.04.02-.07.03M108.23,47.06l.04-.04.04-.04-.07.04s-.01.02,0,.04M109.68,47.09h.04s.03-.01.06-.04c0-.01-.03,0-.09.04M112.56,45.45c-.26.07-.52.17-.77.28-.25.11-.49.24-.7.37.36-.1.71-.22,1.05-.35.34-.13.68-.23,1.03-.31.11-.05.23-.08.34-.1.12-.02.23-.05.35-.1-.06-.04-.13-.05-.21-.05s-.16,0-.23,0l-.84.24Z"/>
  <path class="cls-1" d="M124.67,43.98c-.05.06-.05.12,0,.17v.08l-.04.04s-.04,0-.06.03c-.01.02-.03.03-.06.03l-.02.06c-.09.06-.17.12-.26.17-.09.05-.17.1-.24.15-.1.05-.2.1-.29.15-.09.05-.18.09-.27.13,0,.01,0,.02-.02.02s-.02.01-.04.04c-.09.02-.16.07-.22.13-.06.06-.13.1-.21.11,0-.01.02-.03.06-.04.04-.01.05-.03.04-.04-.04.01-.08.02-.12.03-.04,0-.08.02-.1.05v-.02l-.07.08s-.02.01-.06,0c-.02.07-.08.11-.17.11.05.04.07.04.07,0,0,.02-.05.06-.15.09-.01,0-.03.01-.06.04-.06.07-.15.12-.26.15.04-.02.08-.05.13-.07.05-.02.09-.05.11-.07-.09.04-.16.07-.23.11-.07.04-.13.09-.2.15-.04.02-.06.05-.07.06,0,.02-.02.04-.03.05-.05,0-.09,0-.11,0-.02,0-.06.03-.09.08l-.11.13c-.1,0-.16,0-.19.02l-.15.06v-.04c-.1.02-.18.07-.23.13-.06.06-.14.13-.25.21l-.19.06c-.06.01-.11.03-.14.06-.03.02-.06.05-.08.07-.03.03-.06.05-.09.07-.04.02-.07.05-.11.07-.03-.01-.05,0-.08.03-.03.03-.05.04-.05.03-.01.01-.02.03-.04.05-.01.02-.03.04-.06.05-.1.03-.16.06-.19.1-.02.04-.06.1-.11.16-.05.02-.1.05-.15.07-.05.02-.09.04-.11.07-.1.07-.18.16-.23.25-.06.09-.13.17-.23.23-.03-.03-.03-.04,0-.06.02-.01.04-.03.04-.06.15-.2.31-.39.49-.56.18-.17.35-.35.51-.54.01-.01.03-.02.06-.02,0-.02,0-.04,0-.05,0,0,0-.02,0-.03.06-.02.1-.04.11-.06.01-.01.03-.03.04-.06l-.02.02c0-.07.03-.11.09-.11.02,0,.03,0,.02,0-.01,0-.02-.02-.02-.05h.02l.04.04c.12-.1.25-.21.37-.34.12-.12.25-.23.37-.32h-.04s.05-.03.08-.05c.03-.02.06-.04.08-.06.02-.03.04-.04.06-.04s.02-.01.02-.04c.09-.06.17-.13.26-.2.09-.08.17-.15.24-.22.09-.07.18-.15.27-.21.09-.07.18-.13.27-.2-.52.21-1.01.43-1.46.66-.45.23-.9.48-1.33.74-.06.04-.13.07-.2.09-.07.03-.13.07-.18.13h-.02c-.1.06-.2.12-.29.17-.09.05-.19.1-.29.15-.07.06-.14.11-.21.16-.06.04-.13.1-.21.16-.02.03-.06.06-.11.09-.05.04-.09.07-.11.09,0,.03-.05.04-.15.04.01.01,0,.02,0,.02s-.03.01-.05.04c-.67.47-1.33,1-1.98,1.59-.65.58-1.19,1.21-1.62,1.88-.05,0-.09.01-.13.04,0-.02-.02-.03-.06-.03-.04,0-.07,0-.09-.03v-.02s-.06-.04-.09-.04-.07-.01-.09-.04c-.05-.02-.09-.04-.13-.06-.04-.01-.06-.03-.06-.06-.04.02-.07.02-.09,0-.02-.03-.05-.04-.07-.06v-.09s-.07-.03-.07-.08c0-.06.03-.1.07-.14-.01-.01-.03-.02-.05,0-.02,0-.03,0-.03,0-.03-.05-.02-.09.02-.13.04-.04.07-.07.09-.09.06-.14.14-.25.22-.34.09-.09.17-.19.24-.32.06-.06.11-.12.16-.17.04-.05.08-.11.12-.17.05-.06.09-.11.13-.16.04-.04.07-.1.09-.16.02-.01.05-.04.08-.09.03-.05.07-.09.1-.13l1.42-1.92s.05-.06.08-.1c.03-.04.08-.08.14-.1.09-.17.21-.34.37-.5.07-.06.14-.14.2-.22.06-.09.13-.18.21-.28.07-.06.14-.14.21-.22.06-.09.14-.16.22-.22.16-.14.29-.29.39-.47.03-.01.05-.04.07-.07.02-.04.05-.07.07-.09.03-.01.04-.03.05-.04,0-.01.02-.03.05-.06.02-.01.05-.02.08-.04.03-.01.06-.02.08-.02.05.04.11.09.18.15.07.06.14.13.21.2.07.07.13.15.2.22.06.07.12.12.17.16l.3.47h.04s.03.01.06.04c0,.02,0,.04.02.04,0,.01,0,.02.02.02.15-.06.29-.12.41-.19.12-.06.27-.13.45-.19.4-.17.78-.35,1.15-.53.37-.18.77-.34,1.2-.48.11-.02.22-.06.33-.1.11-.04.21-.08.31-.1.14-.03.26-.05.38-.07.12-.02.24-.02.36,0,0,.01,0,.02.02.02l.02-.02s.02.03.02.02,0-.02.02-.02c.05,0,.07.02.07.06l-.06.06c.09,0,.13,0,.13-.02.07,0,.12.03.13.09.05-.04.1-.03.14,0,.04.04.08.07.1.07.07-.02.1-.06.07-.1-.03-.04-.03-.03,0,.03h-.04s0,.05,0,.04c0-.01,0,0,0,.04v.02s-.03,0-.05.02c-.02.01-.04.02-.07.02.05.03.09.03.12,0,.03-.02.06-.02.08,0,0-.02.01-.04.04-.06-.03.04-.02.06,0,.07.03,0,.03.02,0,.05h.04ZM120.02,45.6c.1-.05.16-.11.19-.17-.11.11-.22.17-.32.17l.02.02c-.1.04-.17.08-.22.13-.05.05-.12.09-.22.11,0,.02-.03.05-.07.06-.05.02-.07.05-.07.08.14-.06.25-.13.35-.21.09-.07.2-.14.31-.19,0-.01.02-.02.06-.02M119.96,46.59v-.04l.02-.02s0,.03-.02.06M120.1,46.87l-.02.04h-.02l.04-.04ZM122.11,45.73l-.04.02-.02.02.02-.02s.03-.02.04-.02M122.13,45.71s0,.02-.02.02l.02-.02ZM123.45,43.72c.06-.02.12-.03.18,0,.06.02.12.02.18,0-.2-.06-.44-.05-.73.04h-.02c.07-.01.14-.02.21-.03.06,0,.12,0,.19,0-.06.01-.11.02-.14.02h-.08s.07,0,.15.02c.07.01.14,0,.21-.02,0-.04-.02-.05-.06-.03-.04.02-.06.02-.07,0M124.67,44.15v-.04.06-.02Z"/>
  <path class="cls-4" d="M61.35,7.58l.13-.27c.68-1.39,1.59-2.64,2.71-3.71l.23-.22.78.85-.24.21c-1.06.94-1.95,2.06-2.62,3.31l-.14.27-.84-.43Z"/>
  <path class="cls-5" d="M60.36,11.88c-.04-.93.09-1.85.38-2.73l.09-.29.77.23-.08.29c-.22.8-.3,1.62-.24,2.44l.03.32-.94.05v-.32Z"/>
  <path class="cls-6" d="M66.32,1.97l.26-.15c1.35-.79,2.82-1.33,4.37-1.6l.31-.06.23,1.47-.31.04c-1.4.19-2.73.62-3.97,1.28l-.27.14-.62-1.12Z"/>
  <path class="cls-2" d="M78.64,3.13c-1.2-.69-2.5-1.16-3.86-1.4l-.3-.05.24-1.6.3.04c1.57.21,3.08.69,4.49,1.43l.28.15-.88,1.6-.28-.16Z"/>
  <path class="cls-3" d="M82.63,4.2c1.1,1.1,2,2.41,2.65,3.84l-1.4.6c-.52-1.29-1.28-2.48-2.22-3.51l.97-.93Z"/>
  <path class="cls-3" d="M72.91,14.42c-.43-.07-.82-.38-1-.84-.25-.67.05-1.4.67-1.63.25-.09.52-.1.78,0l8.98-2.82.34.89-8.6,3.84c-.13.24-.34.41-.59.51-.19.07-.39.09-.59.06M73.06,12.6c-.07-.01-.15,0-.21.02-.25.09-.36.41-.25.7.11.29.4.46.65.36.11-.04.2-.13.25-.25l.06-.13,4.97-2.22-5.19,1.63-.13-.07s-.09-.04-.13-.04"/>
  <path class="cls-1" d="M72.39,26.95c-.1,0-.19-.01-.29-.02h-.17c-.5-.04-.99-.12-1.46-.2l-.33-.05-.39-.1c-.52-.13-1.05-.26-1.56-.47-1.22-.44-2.35-1.03-3.34-1.76l-.34-.25.35-.25c.24-.18.48-.36.71-.55l.37-.31.2.14c.8.56,1.69,1.01,2.65,1.36.43.17.86.28,1.32.39l.38.1.34.05c.42.07.81.13,1.22.16h.17c.11.02.19.02.27.03.34.02.67,0,1.02,0,.17,0,.34-.01.5-.01.13-.02.3-.04.46-.06.44-.05.85-.1,1.25-.2.68-.14,1.22-.28,1.72-.47.57-.2,1.12-.43,1.63-.7.43-.22.84-.47,1.28-.77.91-.63,1.8-1.44,2.65-2.4l.66-.75c.09-.1.21-.15.34-.14.08,0,.16.03.23.08l.51.38c.24.18.3.51.12.75-.34.48-.92,1.26-1.36,1.75-.24.27-.5.5-.77.73-.89.76-1.85,1.41-2.87,1.92-.58.3-1.2.57-1.84.79-.56.21-1.18.38-1.93.53-.48.12-.98.18-1.46.23-.17.02-.33.04-.5.06-.2,0-.37.01-.53.02-.4.01-.81.03-1.22,0"/>
  <path class="cls-4" d="M53.27,26.94c-8.04,0-13.88-5.67-13.88-13.47S45.24,0,53.31,0c3.94,0,7.25,1.26,9.56,3.65l.21.21-1.61,1.71-.23-.22c-2.07-2.04-4.58-2.99-7.9-2.99-6.52,0-11.44,4.77-11.44,11.1s4.92,11.1,11.44,11.1c2.85,0,5.17-.72,7.06-2.21v-7.64h-5.62v-2.29h8.06v10.99l-.1.09c-2.32,2.21-5.69,3.42-9.48,3.42"/>
</svg>